<?xml version="1.0" encoding="UTF-8" standalone="no"?>
<!DOCTYPE svg PUBLIC "-//W3C//DTD SVG 1.1//EN"
 "http://www.w3.org/Graphics/SVG/1.1/DTD/svg11.dtd">
<!-- Generated by graphviz version 2.43.0 (0)
 -->
<!-- Title: snakemake_dag Pages: 1 -->
<svg width="204pt" height="260pt"
 viewBox="0.00 0.00 204.00 260.00" xmlns="http://www.w3.org/2000/svg" xmlns:xlink="http://www.w3.org/1999/xlink">
<g id="graph0" class="graph" transform="scale(1 1) rotate(0) translate(4 256)">
<title>snakemake_dag</title>
<polygon fill="white" stroke="transparent" points="-4,4 -4,-256 200,-256 200,4 -4,4"/>
<!-- 0 -->
<g id="node1" class="node">
<title>0</title>
<path fill="none" stroke="#56c1d8" stroke-width="2" d="M64,-36C64,-36 34,-36 34,-36 28,-36 22,-30 22,-24 22,-24 22,-12 22,-12 22,-6 28,0 34,0 34,0 64,0 64,0 70,0 76,-6 76,-12 76,-12 76,-24 76,-24 76,-30 70,-36 64,-36"/>
<text text-anchor="middle" x="49" y="-15.5" font-family="sans" font-size="10.00">cluster</text>
</g>
<!-- 1 -->
<g id="node2" class="node">
<title>1</title>
<path fill="none" stroke="#56d88a" stroke-width="2" d="M69.5,-108C69.5,-108 28.5,-108 28.5,-108 22.5,-108 16.5,-102 16.5,-96 16.5,-96 16.5,-84 16.5,-84 16.5,-78 22.5,-72 28.5,-72 28.5,-72 69.5,-72 69.5,-72 75.5,-72 81.5,-78 81.5,-84 81.5,-84 81.5,-96 81.5,-96 81.5,-102 75.5,-108 69.5,-108"/>
<text text-anchor="middle" x="49" y="-87.5" font-family="sans" font-size="10.00">normalize</text>
</g>
<!-- 1&#45;&gt;0 -->
<g id="edge1" class="edge">
<title>1&#45;&gt;0</title>
<path fill="none" stroke="grey" stroke-width="2" d="M49,-71.7C49,-63.98 49,-54.71 49,-46.11"/>
<polygon fill="grey" stroke="grey" stroke-width="2" points="52.5,-46.1 49,-36.1 45.5,-46.1 52.5,-46.1"/>
</g>
<!-- 2 -->
<g id="node3" class="node">
<title>2</title>
<path fill="none" stroke="#88d856" stroke-width="2" d="M64,-180C64,-180 34,-180 34,-180 28,-180 22,-174 22,-168 22,-168 22,-156 22,-156 22,-150 28,-144 34,-144 34,-144 64,-144 64,-144 70,-144 76,-150 76,-156 76,-156 76,-168 76,-168 76,-174 70,-180 64,-180"/>
<text text-anchor="middle" x="49" y="-159.5" font-family="sans" font-size="10.00">qc</text>
</g>
<!-- 2&#45;&gt;1 -->
<g id="edge2" class="edge">
<title>2&#45;&gt;1</title>
<path fill="none" stroke="grey" stroke-width="2" d="M49,-143.7C49,-135.98 49,-126.71 49,-118.11"/>
<polygon fill="grey" stroke="grey" stroke-width="2" points="52.5,-118.1 49,-108.1 45.5,-118.1 52.5,-118.1"/>
</g>
<!-- 3 -->
<g id="node4" class="node">
<title>3</title>
<path fill="none" stroke="#d85656" stroke-width="2" stroke-dasharray="5,2" d="M86,-252C86,-252 12,-252 12,-252 6,-252 0,-246 0,-240 0,-240 0,-228 0,-228 0,-222 6,-216 12,-216 12,-216 86,-216 86,-216 92,-216 98,-222 98,-228 98,-228 98,-240 98,-240 98,-246 92,-252 86,-252"/>
<text text-anchor="middle" x="49" y="-237" font-family="sans" font-size="10.00">raw</text>
<text text-anchor="middle" x="49" y="-226" font-family="sans" font-size="10.00">paper: 231&#45;1KB3</text>
</g>
<!-- 3&#45;&gt;2 -->
<g id="edge3" class="edge">
<title>3&#45;&gt;2</title>
<path fill="none" stroke="grey" stroke-width="2" d="M49,-215.7C49,-207.98 49,-198.71 49,-190.11"/>
<polygon fill="grey" stroke="grey" stroke-width="2" points="52.5,-190.1 49,-180.1 45.5,-190.1 52.5,-190.1"/>
</g>
<!-- 4 -->
<g id="node5" class="node">
<title>4</title>
<path fill="none" stroke="#56c1d8" stroke-width="2" d="M171,-36C171,-36 141,-36 141,-36 135,-36 129,-30 129,-24 129,-24 129,-12 129,-12 129,-6 135,0 141,0 141,0 171,0 171,0 177,0 183,-6 183,-12 183,-12 183,-24 183,-24 183,-30 177,-36 171,-36"/>
<text text-anchor="middle" x="156" y="-15.5" font-family="sans" font-size="10.00">cluster</text>
</g>
<!-- 5 -->
<g id="node6" class="node">
<title>5</title>
<path fill="none" stroke="#56d88a" stroke-width="2" d="M176.5,-108C176.5,-108 135.5,-108 135.5,-108 129.5,-108 123.5,-102 123.5,-96 123.5,-96 123.5,-84 123.5,-84 123.5,-78 129.5,-72 135.5,-72 135.5,-72 176.5,-72 176.5,-72 182.5,-72 188.5,-78 188.5,-84 188.5,-84 188.5,-96 188.5,-96 188.5,-102 182.5,-108 176.5,-108"/>
<text text-anchor="middle" x="156" y="-87.5" font-family="sans" font-size="10.00">normalize</text>
</g>
<!-- 5&#45;&gt;4 -->
<g id="edge4" class="edge">
<title>5&#45;&gt;4</title>
<path fill="none" stroke="grey" stroke-width="2" d="M156,-71.7C156,-63.98 156,-54.71 156,-46.11"/>
<polygon fill="grey" stroke="grey" stroke-width="2" points="159.5,-46.1 156,-36.1 152.5,-46.1 159.5,-46.1"/>
</g>
<!-- 6 -->
<g id="node7" class="node">
<title>6</title>
<path fill="none" stroke="#88d856" stroke-width="2" d="M171,-180C171,-180 141,-180 141,-180 135,-180 129,-174 129,-168 129,-168 129,-156 129,-156 129,-150 135,-144 141,-144 141,-144 171,-144 171,-144 177,-144 183,-150 183,-156 183,-156 183,-168 183,-168 183,-174 177,-180 171,-180"/>
<text text-anchor="middle" x="156" y="-159.5" font-family="sans" font-size="10.00">qc</text>
</g>
<!-- 6&#45;&gt;5 -->
<g id="edge5" class="edge">
<title>6&#45;&gt;5</title>
<path fill="none" stroke="grey" stroke-width="2" d="M156,-143.7C156,-135.98 156,-126.71 156,-118.11"/>
<polygon fill="grey" stroke="grey" stroke-width="2" points="159.5,-118.1 156,-108.1 152.5,-118.1 159.5,-118.1"/>
</g>
<!-- 7 -->
<g id="node8" class="node">
<title>7</title>
<path fill="none" stroke="#d85656" stroke-width="2" d="M184,-252C184,-252 128,-252 128,-252 122,-252 116,-246 116,-240 116,-240 116,-228 116,-228 116,-222 122,-216 128,-216 128,-216 184,-216 184,-216 190,-216 196,-222 196,-228 196,-228 196,-240 196,-240 196,-246 190,-252 184,-252"/>
<text text-anchor="middle" x="156" y="-237" font-family="sans" font-size="10.00">raw</text>
<text text-anchor="middle" x="156" y="-226" font-family="sans" font-size="10.00">paper: kinker</text>
</g>
<!-- 7&#45;&gt;6 -->
<g id="edge6" class="edge">
<title>7&#45;&gt;6</title>
<path fill="none" stroke="grey" stroke-width="2" d="M156,-215.7C156,-207.98 156,-198.71 156,-190.11"/>
<polygon fill="grey" stroke="grey" stroke-width="2" points="159.5,-190.1 156,-180.1 152.5,-190.1 159.5,-190.1"/>
</g>
</g>
</svg>
